HIERARCHY
ROOT Hips
{
	OFFSET 0.000000 0.000000 0.000000 
	CHANNELS 6 Xposition Yposition Zposition Yrotation Zrotation Xrotation 
	JOINT Lumbar
	{
		OFFSET 0.000000 0.000000 0.000000 
		CHANNELS 3 Zrotation Xrotation Yrotation
		JOINT Neck
		{
			OFFSET 0.000000 0.445665 0.000000 
			CHANNELS 3 Zrotation Xrotation Yrotation
			End Site
			{
				OFFSET 0.000000 0.227535 0.000000 
			}
		}
		JOINT RightShoulder
		{
			OFFSET 0.019635 0.377685 0.194865 
			CHANNELS 3 Zrotation Xrotation Yrotation
			JOINT RightElbow
			{
				OFFSET 0.000000 -0.243375 0.000000 
				CHANNELS 2 Zrotation Yrotation
				JOINT RightWrist
				{
					OFFSET 0.000000 -0.264825 0.000000 
					CHANNELS 2 Zrotation Xrotation
					End Site
					{
						OFFSET 0.006600 -0.176220 0.000990 
					}
				}
			}
		}
		JOINT LeftShoulder
		{
			OFFSET 0.019635 0.377685 -0.194865 
			CHANNELS 3 Zrotation Xrotation Yrotation
			JOINT LeftElbow
			{
				OFFSET 0.000000 -0.243375 0.000000 
				CHANNELS 2 Zrotation Yrotation
				JOINT LeftWrist
				{
					OFFSET 0.000000 -0.264825 0.000000 
					CHANNELS 2 Zrotation Xrotation
					End Site
					{
						OFFSET 0.006600 -0.176220 -0.000990 
					}
				}
			}
		}
	}
	JOINT RightHip
	{
		OFFSET 0.052140 -0.069960 0.075570 
		CHANNELS 3 Zrotation Xrotation Yrotation
		JOINT RightKnee
		{
			OFFSET 0.000000 -0.402270 0.000000 
			CHANNELS 1 Zrotation
			JOINT RightAnkle
			{
				OFFSET 0.000000 -0.404085 0.000000 
				CHANNELS 3 Zrotation Xrotation Yrotation
				End Site
				{
					OFFSET 0.204105 -0.089430 0.008415 
				}
			}
		}
	}
	JOINT LeftHip
	{
		OFFSET 0.052140 -0.069960 -0.075570 
		CHANNELS 3 Zrotation Xrotation Yrotation
		JOINT LeftKnee
		{
			OFFSET 0.000000 -0.402270 0.000000 
			CHANNELS 1 Zrotation
			JOINT LeftAnkle
			{
				OFFSET 0.000000 -0.404085 0.000000 
				CHANNELS 3 Zrotation Xrotation Yrotation
				End Site
				{
					OFFSET 0.204105 -0.089430 -0.008415 
				}
			}
		}
	}
}
MOTION
Frames: 19
Frame Time: 0.02
0.78493 0.1673 -0.71775 39.12333 -31.75482 -8.39049 49.87525 2.04241 6.27926 2.4416 -0.12862 -0.83079 -21.64073 -3.02799 -33.31248 31.86474 60.11218 -12.29098 3.25217 -5.87473 47.27503 -10.01836 63.30932 -83.29275 0.46805 1.27143 34.46477 -6.58051 -4.51122 -8.48533 -8.56962 -4.99422 -3.38921 35.68488 2.06524 1.35542 -13.08848 -7.4345 3.84424 2.69359
0.78924 0.1683 -0.71594 38.33856 -31.78859 -8.19047 49.91556 2.24452 6.36242 2.37763 -0.13128 -0.83079 -21.38293 -3.8445 -31.86328 31.66382 62.38838 -11.47201 2.84733 -3.8347 50.30274 -10.40647 62.11821 -83.29689 0.87112 1.39021 34.07754 -6.43799 -4.47652 -7.22886 -7.09535 -5.94636 -3.76559 35.35106 2.10049 1.42634 -12.55635 -7.55132 3.92268 2.75025
0.79383 0.16942 -0.71403 37.46336 -31.82454 -7.98416 49.97225 2.47887 6.47407 2.3281 -0.14339 -0.83079 -21.1453 -5.08288 -28.48064 31.66947 66.20059 -10.23452 2.09531 -1.14157 53.7833 -10.96955 60.47587 -83.22917 1.26792 1.51732 33.57735 -6.25552 -4.47284 -5.9386 -5.26456 -7.2647 -4.30467 34.98286 2.12544 1.48836 -11.95668 -7.66361 4.03632 2.8288
0.7983 0.17048 -0.71216 36.62934 -31.85828 -7.78145 50.01741 2.69785 6.5573 2.28115 -0.15578 -0.83079 -20.86639 -6.10929 -26.02613 31.58964 69.19723 -9.21689 1.52673 1.70441 57.00632 -11.73786 58.87964 -83.2155 1.63736 1.61905 33.13946 -6.09357 -4.34932 -4.69134 -3.71308 -8.53463 -4.84152 34.6225 2.15535 1.55447 -11.37725 -7.72825 4.16746 2.91447
0.80274 0.17154 -0.71032 35.78711 -31.89415 -7.57301 50.07849 2.92116 6.71635 2.1919 -0.14808 -0.83079 -20.7121 -7.22771 -23.35118 31.4828 72.67418 -8.06304 0.85946 2.69533 60.48517 -11.40754 57.92918 -83.11924 2.133 1.80199 32.65668 -5.92253 -4.66065 -3.34716 -1.67359 -9.32773 -5.08745 34.29189 2.18227 1.6294 -10.84184 -7.9889 4.14728 2.9218
0.8073 0.17264 -0.7084 34.94583 -31.92765 -7.37697 50.1104 3.14209 6.71629 2.19806 -0.18485 -0.83079 -20.30356 -8.25073 -20.68038 31.47364 75.52352 -7.10046 0.30991 7.65157 63.50094 -13.27538 55.55402 -83.16958 2.36573 1.83041 32.24047 -5.75985 -4.09293 -2.19106 -0.5542 -11.17206 -5.96175 33.89278 2.21457 1.67431 -10.19846 -7.85786 4.46365 3.10578
0.81214 0.17378 -0.70629 34.10227 -31.94932 -7.20505 50.06338 3.35515 6.31896 2.43321 -0.34167 -0.83079 -19.23684 -8.92453 -18.50049 31.74202 76.23955 -6.73387 0.19184 23.84734 65.418 -22.35836 49.13661 -83.71167 1.8631 1.31555 32.03021 -5.63908 -0.90556 -1.54009 -2.1746 -16.08728 -8.67671 33.30849 2.25349 1.71439 -9.27856 -6.49218 5.58212 3.69659
0.81707 0.17495 -0.70411 33.26956 -31.96992 -7.04831 49.98597 3.56346 5.75117 2.76927 -0.54346 -0.83079 -17.90918 -9.48353 -16.39431 32.09302 76.27734 -6.58086 0.19962 43.91954 66.79936 -33.46214 41.34416 -84.39252 1.0988 0.66242 31.89151 -5.52639 3.13416 -1.08062 -4.71335 -22.00095 -11.99211 32.65838 2.30043 1.71086 -8.25255 -4.75993 7.05632 4.47599
0.82194 0.17611 -0.70195 32.44906 -31.99428 -6.89239 49.91866 3.76946 5.22757 3.08021 -0.72459 -0.83079 -16.66783 -10.08334 -14.249 32.3638 76.64374 -6.35511 0.13397 61.93158 68.23153 -42.81599 34.32312 -84.96174 0.46064 0.15252 31.72352 -5.40409 6.66287 -0.54511 -6.75812 -27.28765 -14.93682 32.04076 2.35073 1.67632 -7.27045 -3.29815 8.45016 5.22177
0.82692 0.17725 -0.69981 31.54884 -32.00423 -6.70328 49.86627 3.99522 4.84287 3.30622 -0.90547 -0.83079 -15.55249 -10.74711 -12.05039 32.81032 76.9779 -6.01586 0.12285 81.25771 70.48575 -55.5381 26.66075 -85.72573 -0.2109 -0.68081 31.53835 -5.30553 10.71106 0.03746 -9.11181 -33.31452 -18.29777 31.40802 2.37061 1.85306 -6.29967 -1.40286 9.5176 5.75873
0.83168 0.17845 -0.69763 30.82358 -32.04467 -6.58746 49.77699 4.17856 4.13135 3.73021 -1.0993 -0.83079 -14.12591 -11.24339 -10.01735 32.92238 77.1976 -5.96426 0.0351 98.71982 70.90373 -61.90856 20.02221 -86.12769 -0.87162 -0.89307 31.40696 -5.1599 13.88184 0.4763 -11.04745 -38.03692 -20.93521 30.79536 2.45651 1.58326 -5.28668 -0.31701 11.32933 6.7622
0.83579 0.17987 -0.69528 30.53482 -32.16334 -6.66634 49.57917 4.24342 2.53058 4.69914 -1.30162 -0.83079 -11.78883 -11.31605 -8.33143 31.96171 77.26565 -6.70048 -0.31647 110.41743 66.30085 -48.60887 16.47598 -85.4132 -1.46423 0.81711 31.41115 -4.8834 14.406 0.56446 -11.58129 -38.86651 -21.40009 30.2222 2.71718 0.05944 -4.13437 -1.61124 15.27704 9.1192
0.83967 0.18136 -0.6929 30.42977 -32.31383 -6.81907 49.34765 4.26623 0.61277 5.85929 -1.51812 -0.83079 -9.16857 -11.22014 -6.83597 30.68309 77.23488 -7.71285 -0.74423 120.04109 59.88243 -29.12742 14.0231 -84.34605 -2.02995 3.12814 31.46686 -4.5595 14.02083 0.51455 -11.66753 -38.35408 -21.11987 29.67753 3.04479 -1.90543 -2.95251 -3.72167 19.92968 11.91845
0.84365 0.18281 -0.69056 30.27084 -32.45396 -6.94088 49.14095 4.30957 -1.14244 6.917 -1.73915 -0.83079 -6.75369 -11.19193 -5.32427 29.63556 77.24217 -8.57031 -1.12079 130.39268 54.34497 -13.57965 11.11879 -83.49421 -2.59377 5.04568 31.49636 -4.25648 14.06202 0.52827 -11.97697 -38.48671 -21.19894 29.14124 3.34587 -3.64871 -1.81669 -5.42316 24.14976 14.4418
0.84767 0.18427 -0.6881 29.9901 -32.57709 -7.05279 48.8938 4.34608 -2.98518 8.04455 -1.91667 -0.83079 -4.0074 -11.19683 -3.51953 28.23183 77.25416 -9.55727 -1.56134 141.78231 48.54892 6.5436 7.97464 -82.41214 -3.2351 7.45241 31.53946 -3.95549 14.07724 0.53182 -12.23974 -38.51251 -21.2143 28.51327 3.63211 -5.48647 -0.54013 -7.27545 28.85725 17.2873
0.85154 0.18574 -0.6859 30.00295 -32.74275 -7.20174 48.72238 4.38776 -4.71441 9.06982 -2.18601 -0.83079 -1.88572 -11.09516 -2.36654 27.48539 77.24349 -10.33971 -1.89058 150.47124 42.87262 18.75747 5.60724 -81.72736 -3.69421 9.00284 31.56633 -3.6402 13.91992 0.52594 -12.47519 -38.4208 -21.17444 28.08303 3.96343 -7.22705 0.44978 -9.00833 32.71071 19.56528
0.85508 0.18725 -0.68437 30.81247 -33.02247 -7.44253 48.77676 4.44645 -6.08894 9.77323 -2.7185 -0.83079 -1.57482 -10.73202 -2.99578 28.69938 77.17782 -10.46828 -1.87355 152.14963 37.93045 6.57475 5.12983 -82.19263 -3.75632 7.87925 31.52952 -3.28615 13.49863 0.53136 -12.79581 -38.39815 -21.18734 28.20053 4.41633 -8.62884 0.63261 -10.24708 34.04232 20.15779
0.85846 0.18875 -0.68311 31.90494 -33.34343 -7.7164 48.90739 4.51324 -7.3311 10.36524 -3.34004 -0.83079 -1.89992 -10.26982 -4.2682 30.57221 77.09852 -10.38385 -1.74572 151.17431 33.18444 -13.55264 5.40138 -83.07207 -3.62099 5.89918 31.47593 -2.92148 12.93134 0.53234 -13.09101 -38.28647 -21.16277 28.51526 4.9095 -9.90941 0.52686 -11.33263 34.48515 20.16413
0.86188 0.19024 -0.68175 32.848 -33.64219 -7.97026 48.99736 4.5813 -8.60858 11.00291 -3.91226 -0.83079 -1.92491 -9.85869 -5.22756 32.09929 77.0404 -10.41088 -1.68316 151.43263 28.37456 -29.37799 5.32826 -83.78728 -3.50316 4.42485 31.43312 -2.56857 12.43486 0.53401 -13.35885 -38.16747 -21.1376 28.73369 5.37562 -11.22194 0.55828 -12.46716 35.32916 20.44541
